<mxfile host="app.diagrams.net" modified="2021-01-14T10:21:33.666Z" agent="5.0 (Windows NT 10.0; Win64; x64) AppleWebKit/537.36 (KHTML, like Gecko) Chrome/87.0.4280.141 Safari/537.36" etag="QO0FB8RKNImNTs-hczXt" version="14.2.2" type="github">
  <diagram id="C5RBs43oDa-KdzZeNtuy" name="Page-1">
    <mxGraphModel dx="1038" dy="580" grid="0" gridSize="10" guides="1" tooltips="1" connect="1" arrows="1" fold="1" page="1" pageScale="1" pageWidth="827" pageHeight="1169" background="none" math="0" shadow="0">
      <root>
        <mxCell id="WIyWlLk6GJQsqaUBKTNV-0" />
        <mxCell id="WIyWlLk6GJQsqaUBKTNV-1" parent="WIyWlLk6GJQsqaUBKTNV-0" />
        <mxCell id="wLdGKYb3hIYz0n7tp1O_-1" value="&lt;font style=&quot;font-size: 26px&quot;&gt;Client&lt;/font&gt;" style="html=1;" parent="WIyWlLk6GJQsqaUBKTNV-1" vertex="1">
          <mxGeometry x="110" y="100" width="100" height="90" as="geometry" />
        </mxCell>
        <mxCell id="wLdGKYb3hIYz0n7tp1O_-4" value="" style="endArrow=open;endFill=1;endSize=12;html=1;exitX=1;exitY=0.5;exitDx=0;exitDy=0;entryX=0;entryY=0.5;entryDx=0;entryDy=0;" parent="WIyWlLk6GJQsqaUBKTNV-1" source="wLdGKYb3hIYz0n7tp1O_-1" target="wLdGKYb3hIYz0n7tp1O_-5" edge="1">
          <mxGeometry width="160" relative="1" as="geometry">
            <mxPoint x="330" y="300" as="sourcePoint" />
            <mxPoint x="290" y="145" as="targetPoint" />
            <Array as="points">
              <mxPoint x="280" y="145" />
            </Array>
          </mxGeometry>
        </mxCell>
        <mxCell id="wLdGKYb3hIYz0n7tp1O_-5" value="&lt;p style=&quot;margin: 4px 0px 0px ; text-align: center ; font-size: 18px&quot;&gt;&lt;i&gt;&lt;font style=&quot;font-size: 18px&quot;&gt;&amp;lt;&amp;lt;Interface&amp;gt;&amp;gt;&lt;/font&gt;&lt;/i&gt;&lt;/p&gt;&lt;p style=&quot;margin: 4px 0px 0px ; text-align: center ; font-size: 18px&quot;&gt;&lt;font style=&quot;font-size: 18px&quot;&gt;&lt;i&gt;&lt;b&gt;Target&lt;/b&gt;&lt;/i&gt;&lt;/font&gt;&lt;/p&gt;&lt;hr size=&quot;1&quot; style=&quot;font-size: 18px&quot;&gt;&lt;p style=&quot;margin: 0px 0px 0px 4px ; font-size: 18px&quot;&gt;&lt;font style=&quot;font-size: 18px&quot;&gt;request()&lt;/font&gt;&lt;/p&gt;" style="verticalAlign=top;align=left;overflow=fill;fontSize=12;fontFamily=Helvetica;html=1;" parent="WIyWlLk6GJQsqaUBKTNV-1" vertex="1">
          <mxGeometry x="300" y="95" width="150" height="100" as="geometry" />
        </mxCell>
        <mxCell id="wLdGKYb3hIYz0n7tp1O_-6" value="" style="endArrow=block;dashed=1;endFill=0;endSize=12;html=1;entryX=0.5;entryY=1;entryDx=0;entryDy=0;exitX=0.5;exitY=0;exitDx=0;exitDy=0;" parent="WIyWlLk6GJQsqaUBKTNV-1" source="wLdGKYb3hIYz0n7tp1O_-8" target="wLdGKYb3hIYz0n7tp1O_-5" edge="1">
          <mxGeometry width="160" relative="1" as="geometry">
            <mxPoint x="355" y="280" as="sourcePoint" />
            <mxPoint x="490" y="300" as="targetPoint" />
            <Array as="points">
              <mxPoint x="375" y="257" />
            </Array>
          </mxGeometry>
        </mxCell>
        <mxCell id="wLdGKYb3hIYz0n7tp1O_-8" value="Adapter" style="swimlane;fontStyle=1;align=center;verticalAlign=top;childLayout=stackLayout;horizontal=1;startSize=26;horizontalStack=0;resizeParent=1;resizeParentMax=0;resizeLast=0;collapsible=1;marginBottom=0;fontSize=18;" parent="WIyWlLk6GJQsqaUBKTNV-1" vertex="1">
          <mxGeometry x="320" y="260" width="110" height="80" as="geometry" />
        </mxCell>
        <mxCell id="wLdGKYb3hIYz0n7tp1O_-11" value="request()" style="text;strokeColor=none;fillColor=none;align=left;verticalAlign=top;spacingLeft=4;spacingRight=4;overflow=hidden;rotatable=0;points=[[0,0.5],[1,0.5]];portConstraint=eastwest;fontSize=18;" parent="wLdGKYb3hIYz0n7tp1O_-8" vertex="1">
          <mxGeometry y="26" width="110" height="54" as="geometry" />
        </mxCell>
        <mxCell id="wLdGKYb3hIYz0n7tp1O_-12" value="Adaptee" style="swimlane;fontStyle=1;align=center;verticalAlign=top;childLayout=stackLayout;horizontal=1;startSize=26;horizontalStack=0;resizeParent=1;resizeParentMax=0;resizeLast=0;collapsible=1;marginBottom=0;fontSize=18;" parent="WIyWlLk6GJQsqaUBKTNV-1" vertex="1">
          <mxGeometry x="510" y="260" width="178" height="80" as="geometry">
            <mxRectangle x="510" y="260" width="98" height="26" as="alternateBounds" />
          </mxGeometry>
        </mxCell>
        <mxCell id="wLdGKYb3hIYz0n7tp1O_-16" value="" style="endArrow=open;endFill=1;endSize=12;html=1;" parent="wLdGKYb3hIYz0n7tp1O_-12" edge="1">
          <mxGeometry width="160" relative="1" as="geometry">
            <mxPoint x="-80" y="39.65999999999997" as="sourcePoint" />
            <mxPoint y="40" as="targetPoint" />
          </mxGeometry>
        </mxCell>
        <mxCell id="wLdGKYb3hIYz0n7tp1O_-13" value="specificRequest()" style="text;strokeColor=none;fillColor=none;align=left;verticalAlign=top;spacingLeft=4;spacingRight=4;overflow=hidden;rotatable=0;points=[[0,0.5],[1,0.5]];portConstraint=eastwest;fontSize=18;" parent="wLdGKYb3hIYz0n7tp1O_-12" vertex="1">
          <mxGeometry y="26" width="178" height="54" as="geometry" />
        </mxCell>
        <mxCell id="wLdGKYb3hIYz0n7tp1O_-17" value="&lt;p style=&quot;margin: 4px 0px 0px ; text-align: center ; font-size: 18px&quot;&gt;&lt;i&gt;&lt;font style=&quot;font-size: 18px&quot;&gt;&amp;lt;&amp;lt;Interface&amp;gt;&amp;gt;&lt;/font&gt;&lt;/i&gt;&lt;/p&gt;&lt;p style=&quot;margin: 4px 0px 0px ; text-align: center ; font-size: 18px&quot;&gt;&lt;b&gt;&lt;i&gt;Subject&lt;/i&gt;&lt;/b&gt;&lt;/p&gt;&lt;hr size=&quot;1&quot; style=&quot;font-size: 18px&quot;&gt;&lt;p style=&quot;margin: 0px 0px 0px 4px ; font-size: 18px&quot;&gt;&lt;font style=&quot;font-size: 18px&quot;&gt;request()&lt;/font&gt;&lt;/p&gt;" style="verticalAlign=top;align=left;overflow=fill;fontSize=12;fontFamily=Helvetica;html=1;" parent="WIyWlLk6GJQsqaUBKTNV-1" vertex="1">
          <mxGeometry x="330" y="485" width="150" height="100" as="geometry" />
        </mxCell>
        <mxCell id="wLdGKYb3hIYz0n7tp1O_-23" value="Real Subject" style="swimlane;fontStyle=1;align=center;verticalAlign=top;childLayout=stackLayout;horizontal=1;startSize=26;horizontalStack=0;resizeParent=1;resizeParentMax=0;resizeLast=0;collapsible=1;marginBottom=0;fontSize=18;" parent="WIyWlLk6GJQsqaUBKTNV-1" vertex="1">
          <mxGeometry x="210" y="680" width="160" height="100" as="geometry" />
        </mxCell>
        <mxCell id="wLdGKYb3hIYz0n7tp1O_-24" value="request()" style="text;strokeColor=none;fillColor=none;align=left;verticalAlign=top;spacingLeft=4;spacingRight=4;overflow=hidden;rotatable=0;points=[[0,0.5],[1,0.5]];portConstraint=eastwest;fontSize=18;" parent="wLdGKYb3hIYz0n7tp1O_-23" vertex="1">
          <mxGeometry y="26" width="160" height="74" as="geometry" />
        </mxCell>
        <mxCell id="wLdGKYb3hIYz0n7tp1O_-25" value="Proxy" style="swimlane;fontStyle=1;align=center;verticalAlign=top;childLayout=stackLayout;horizontal=1;startSize=26;horizontalStack=0;resizeParent=1;resizeParentMax=0;resizeLast=0;collapsible=1;marginBottom=0;fontSize=18;" parent="WIyWlLk6GJQsqaUBKTNV-1" vertex="1">
          <mxGeometry x="440" y="680" width="170" height="100" as="geometry" />
        </mxCell>
        <mxCell id="wLdGKYb3hIYz0n7tp1O_-26" value="request()" style="text;strokeColor=none;fillColor=none;align=left;verticalAlign=top;spacingLeft=4;spacingRight=4;overflow=hidden;rotatable=0;points=[[0,0.5],[1,0.5]];portConstraint=eastwest;fontSize=18;" parent="wLdGKYb3hIYz0n7tp1O_-25" vertex="1">
          <mxGeometry y="26" width="170" height="74" as="geometry" />
        </mxCell>
        <mxCell id="wLdGKYb3hIYz0n7tp1O_-27" value="&lt;font style=&quot;font-size: 26px&quot;&gt;Client&lt;/font&gt;" style="html=1;" parent="WIyWlLk6GJQsqaUBKTNV-1" vertex="1">
          <mxGeometry x="100" y="490" width="100" height="90" as="geometry" />
        </mxCell>
        <mxCell id="wLdGKYb3hIYz0n7tp1O_-28" value="" style="endArrow=open;endFill=1;endSize=12;html=1;exitX=1;exitY=0.5;exitDx=0;exitDy=0;entryX=0;entryY=0.5;entryDx=0;entryDy=0;" parent="WIyWlLk6GJQsqaUBKTNV-1" target="wLdGKYb3hIYz0n7tp1O_-17" edge="1">
          <mxGeometry width="160" relative="1" as="geometry">
            <mxPoint x="200" y="534.5" as="sourcePoint" />
            <mxPoint x="290" y="534.5" as="targetPoint" />
            <Array as="points">
              <mxPoint x="270" y="534.5" />
            </Array>
          </mxGeometry>
        </mxCell>
        <mxCell id="wLdGKYb3hIYz0n7tp1O_-29" value="" style="endArrow=block;dashed=1;endFill=0;endSize=12;html=1;fontSize=18;exitX=0.5;exitY=0;exitDx=0;exitDy=0;entryX=0.25;entryY=1;entryDx=0;entryDy=0;" parent="WIyWlLk6GJQsqaUBKTNV-1" source="wLdGKYb3hIYz0n7tp1O_-23" target="wLdGKYb3hIYz0n7tp1O_-17" edge="1">
          <mxGeometry width="160" relative="1" as="geometry">
            <mxPoint x="310" y="680" as="sourcePoint" />
            <mxPoint x="470" y="680" as="targetPoint" />
          </mxGeometry>
        </mxCell>
        <mxCell id="wLdGKYb3hIYz0n7tp1O_-30" value="" style="endArrow=block;dashed=1;endFill=0;endSize=12;html=1;fontSize=18;entryX=0.75;entryY=1;entryDx=0;entryDy=0;exitX=0.5;exitY=0;exitDx=0;exitDy=0;" parent="WIyWlLk6GJQsqaUBKTNV-1" source="wLdGKYb3hIYz0n7tp1O_-25" target="wLdGKYb3hIYz0n7tp1O_-17" edge="1">
          <mxGeometry width="160" relative="1" as="geometry">
            <mxPoint x="310" y="680" as="sourcePoint" />
            <mxPoint x="470" y="680" as="targetPoint" />
          </mxGeometry>
        </mxCell>
        <mxCell id="wLdGKYb3hIYz0n7tp1O_-31" value="" style="endArrow=open;endFill=1;endSize=12;html=1;fontSize=18;exitX=0.002;exitY=0.348;exitDx=0;exitDy=0;exitPerimeter=0;entryX=0.999;entryY=0.336;entryDx=0;entryDy=0;entryPerimeter=0;" parent="WIyWlLk6GJQsqaUBKTNV-1" source="wLdGKYb3hIYz0n7tp1O_-26" target="wLdGKYb3hIYz0n7tp1O_-24" edge="1">
          <mxGeometry width="160" relative="1" as="geometry">
            <mxPoint x="310" y="680" as="sourcePoint" />
            <mxPoint x="372" y="731" as="targetPoint" />
          </mxGeometry>
        </mxCell>
        <mxCell id="wLdGKYb3hIYz0n7tp1O_-32" value="&lt;font style=&quot;font-size: 26px&quot;&gt;Client&lt;/font&gt;" style="html=1;" parent="WIyWlLk6GJQsqaUBKTNV-1" vertex="1">
          <mxGeometry x="110" y="850" width="100" height="90" as="geometry" />
        </mxCell>
        <mxCell id="wLdGKYb3hIYz0n7tp1O_-33" value="&lt;p style=&quot;margin: 4px 0px 0px ; text-align: center ; font-size: 18px&quot;&gt;&lt;i&gt;&lt;font style=&quot;font-size: 18px&quot;&gt;&amp;lt;&amp;lt;Interface&amp;gt;&amp;gt;&lt;/font&gt;&lt;/i&gt;&lt;/p&gt;&lt;p style=&quot;margin: 4px 0px 0px ; text-align: center ; font-size: 18px&quot;&gt;&lt;b&gt;&lt;i&gt;Strategy&lt;/i&gt;&lt;/b&gt;&lt;/p&gt;&lt;hr size=&quot;1&quot; style=&quot;font-size: 18px&quot;&gt;&lt;p style=&quot;margin: 0px 0px 0px 4px ; font-size: 18px&quot;&gt;&lt;font style=&quot;font-size: 18px&quot;&gt;algorithm()&lt;/font&gt;&lt;/p&gt;" style="verticalAlign=top;align=left;overflow=fill;fontSize=12;fontFamily=Helvetica;html=1;" parent="WIyWlLk6GJQsqaUBKTNV-1" vertex="1">
          <mxGeometry x="330" y="840" width="150" height="100" as="geometry" />
        </mxCell>
        <mxCell id="wLdGKYb3hIYz0n7tp1O_-35" value="Strategy1" style="swimlane;fontStyle=1;align=center;verticalAlign=top;childLayout=stackLayout;horizontal=1;startSize=26;horizontalStack=0;resizeParent=1;resizeParentMax=0;resizeLast=0;collapsible=1;marginBottom=0;fontSize=18;" parent="WIyWlLk6GJQsqaUBKTNV-1" vertex="1">
          <mxGeometry x="240" y="1040" width="160" height="100" as="geometry" />
        </mxCell>
        <mxCell id="wLdGKYb3hIYz0n7tp1O_-36" value="algorithm()" style="text;strokeColor=none;fillColor=none;align=left;verticalAlign=top;spacingLeft=4;spacingRight=4;overflow=hidden;rotatable=0;points=[[0,0.5],[1,0.5]];portConstraint=eastwest;fontSize=18;" parent="wLdGKYb3hIYz0n7tp1O_-35" vertex="1">
          <mxGeometry y="26" width="160" height="74" as="geometry" />
        </mxCell>
        <mxCell id="wLdGKYb3hIYz0n7tp1O_-37" value="Strategy2" style="swimlane;fontStyle=1;align=center;verticalAlign=top;childLayout=stackLayout;horizontal=1;startSize=26;horizontalStack=0;resizeParent=1;resizeParentMax=0;resizeLast=0;collapsible=1;marginBottom=0;fontSize=18;" parent="WIyWlLk6GJQsqaUBKTNV-1" vertex="1">
          <mxGeometry x="430" y="1040" width="160" height="100" as="geometry" />
        </mxCell>
        <mxCell id="wLdGKYb3hIYz0n7tp1O_-38" value="algorithm()" style="text;strokeColor=none;fillColor=none;align=left;verticalAlign=top;spacingLeft=4;spacingRight=4;overflow=hidden;rotatable=0;points=[[0,0.5],[1,0.5]];portConstraint=eastwest;fontSize=18;" parent="wLdGKYb3hIYz0n7tp1O_-37" vertex="1">
          <mxGeometry y="26" width="160" height="74" as="geometry" />
        </mxCell>
        <mxCell id="wLdGKYb3hIYz0n7tp1O_-39" value="" style="endArrow=block;dashed=1;endFill=0;endSize=12;html=1;fontSize=18;entryX=0.25;entryY=1;entryDx=0;entryDy=0;exitX=0.5;exitY=0;exitDx=0;exitDy=0;" parent="WIyWlLk6GJQsqaUBKTNV-1" source="wLdGKYb3hIYz0n7tp1O_-35" target="wLdGKYb3hIYz0n7tp1O_-33" edge="1">
          <mxGeometry width="160" relative="1" as="geometry">
            <mxPoint x="280" y="980" as="sourcePoint" />
            <mxPoint x="440" y="980" as="targetPoint" />
          </mxGeometry>
        </mxCell>
        <mxCell id="wLdGKYb3hIYz0n7tp1O_-40" value="" style="endArrow=block;dashed=1;endFill=0;endSize=12;html=1;fontSize=18;entryX=0.75;entryY=1;entryDx=0;entryDy=0;exitX=0.5;exitY=0;exitDx=0;exitDy=0;" parent="WIyWlLk6GJQsqaUBKTNV-1" source="wLdGKYb3hIYz0n7tp1O_-37" target="wLdGKYb3hIYz0n7tp1O_-33" edge="1">
          <mxGeometry width="160" relative="1" as="geometry">
            <mxPoint x="280" y="980" as="sourcePoint" />
            <mxPoint x="440" y="980" as="targetPoint" />
          </mxGeometry>
        </mxCell>
        <mxCell id="wLdGKYb3hIYz0n7tp1O_-41" value="" style="endArrow=open;endFill=1;endSize=12;html=1;fontSize=18;entryX=0;entryY=0.5;entryDx=0;entryDy=0;exitX=1.009;exitY=0.436;exitDx=0;exitDy=0;exitPerimeter=0;" parent="WIyWlLk6GJQsqaUBKTNV-1" source="wLdGKYb3hIYz0n7tp1O_-32" target="wLdGKYb3hIYz0n7tp1O_-33" edge="1">
          <mxGeometry width="160" relative="1" as="geometry">
            <mxPoint x="230" y="890" as="sourcePoint" />
            <mxPoint x="440" y="980" as="targetPoint" />
          </mxGeometry>
        </mxCell>
        <mxCell id="wLdGKYb3hIYz0n7tp1O_-42" value="strategy" style="edgeLabel;html=1;align=center;verticalAlign=middle;resizable=0;points=[];fontSize=18;" parent="wLdGKYb3hIYz0n7tp1O_-41" vertex="1" connectable="0">
          <mxGeometry x="-0.1615" y="-1" relative="1" as="geometry">
            <mxPoint y="-20.56" as="offset" />
          </mxGeometry>
        </mxCell>
        <mxCell id="z4TTv1_D8EA7O0kFV5OE-4" value="&lt;font style=&quot;font-size: 26px&quot;&gt;Client&lt;/font&gt;" style="html=1;" parent="WIyWlLk6GJQsqaUBKTNV-1" vertex="1">
          <mxGeometry x="115" y="1249" width="100" height="90" as="geometry" />
        </mxCell>
        <mxCell id="z4TTv1_D8EA7O0kFV5OE-5" value="Component" style="swimlane;fontStyle=1;align=center;verticalAlign=top;childLayout=stackLayout;horizontal=1;startSize=26;horizontalStack=0;resizeParent=1;resizeParentMax=0;resizeLast=0;collapsible=1;marginBottom=0;fontSize=18;" parent="WIyWlLk6GJQsqaUBKTNV-1" vertex="1">
          <mxGeometry x="347" y="1231" width="160" height="100" as="geometry" />
        </mxCell>
        <mxCell id="z4TTv1_D8EA7O0kFV5OE-6" value="operation()" style="text;strokeColor=none;fillColor=none;align=left;verticalAlign=top;spacingLeft=4;spacingRight=4;overflow=hidden;rotatable=0;points=[[0,0.5],[1,0.5]];portConstraint=eastwest;fontSize=18;" parent="z4TTv1_D8EA7O0kFV5OE-5" vertex="1">
          <mxGeometry y="26" width="160" height="74" as="geometry" />
        </mxCell>
        <mxCell id="z4TTv1_D8EA7O0kFV5OE-7" value="Leaf" style="swimlane;fontStyle=1;align=center;verticalAlign=top;childLayout=stackLayout;horizontal=1;startSize=26;horizontalStack=0;resizeParent=1;resizeParentMax=0;resizeLast=0;collapsible=1;marginBottom=0;fontSize=18;" parent="WIyWlLk6GJQsqaUBKTNV-1" vertex="1">
          <mxGeometry x="215" y="1451" width="160" height="100" as="geometry" />
        </mxCell>
        <mxCell id="z4TTv1_D8EA7O0kFV5OE-8" value="operation()" style="text;strokeColor=none;fillColor=none;align=left;verticalAlign=top;spacingLeft=4;spacingRight=4;overflow=hidden;rotatable=0;points=[[0,0.5],[1,0.5]];portConstraint=eastwest;fontSize=18;" parent="z4TTv1_D8EA7O0kFV5OE-7" vertex="1">
          <mxGeometry y="26" width="160" height="74" as="geometry" />
        </mxCell>
        <mxCell id="z4TTv1_D8EA7O0kFV5OE-9" value="Composite" style="swimlane;fontStyle=1;align=center;verticalAlign=top;childLayout=stackLayout;horizontal=1;startSize=26;horizontalStack=0;resizeParent=1;resizeParentMax=0;resizeLast=0;collapsible=1;marginBottom=0;fontSize=18;" parent="WIyWlLk6GJQsqaUBKTNV-1" vertex="1">
          <mxGeometry x="507" y="1451" width="160" height="100" as="geometry" />
        </mxCell>
        <mxCell id="z4TTv1_D8EA7O0kFV5OE-10" value="operation()" style="text;strokeColor=none;fillColor=none;align=left;verticalAlign=top;spacingLeft=4;spacingRight=4;overflow=hidden;rotatable=0;points=[[0,0.5],[1,0.5]];portConstraint=eastwest;fontSize=18;" parent="z4TTv1_D8EA7O0kFV5OE-9" vertex="1">
          <mxGeometry y="26" width="160" height="74" as="geometry" />
        </mxCell>
        <mxCell id="z4TTv1_D8EA7O0kFV5OE-12" value="" style="endArrow=open;endFill=1;endSize=12;html=1;exitX=1;exitY=0.5;exitDx=0;exitDy=0;entryX=0;entryY=0.5;entryDx=0;entryDy=0;" parent="WIyWlLk6GJQsqaUBKTNV-1" source="z4TTv1_D8EA7O0kFV5OE-4" target="z4TTv1_D8EA7O0kFV5OE-6" edge="1">
          <mxGeometry width="160" relative="1" as="geometry">
            <mxPoint x="332" y="1501" as="sourcePoint" />
            <mxPoint x="492" y="1501" as="targetPoint" />
          </mxGeometry>
        </mxCell>
        <mxCell id="z4TTv1_D8EA7O0kFV5OE-15" value="1" style="endArrow=open;html=1;endSize=12;startArrow=diamondThin;startSize=14;startFill=0;edgeStyle=orthogonalEdgeStyle;align=left;verticalAlign=bottom;exitX=1;exitY=0.5;exitDx=0;exitDy=0;" parent="WIyWlLk6GJQsqaUBKTNV-1" source="z4TTv1_D8EA7O0kFV5OE-10" target="z4TTv1_D8EA7O0kFV5OE-6" edge="1">
          <mxGeometry x="-1" y="3" relative="1" as="geometry">
            <mxPoint x="332" y="1501" as="sourcePoint" />
            <mxPoint x="492" y="1501" as="targetPoint" />
            <Array as="points">
              <mxPoint x="703" y="1514" />
              <mxPoint x="703" y="1294" />
            </Array>
          </mxGeometry>
        </mxCell>
        <mxCell id="z4TTv1_D8EA7O0kFV5OE-16" value="1..*" style="edgeLabel;html=1;align=center;verticalAlign=middle;resizable=0;points=[];fontSize=26;" parent="z4TTv1_D8EA7O0kFV5OE-15" vertex="1" connectable="0">
          <mxGeometry x="0.891" y="-2" relative="1" as="geometry">
            <mxPoint x="21" y="20" as="offset" />
          </mxGeometry>
        </mxCell>
        <mxCell id="z4TTv1_D8EA7O0kFV5OE-17" value="children" style="edgeLabel;html=1;align=center;verticalAlign=middle;resizable=0;points=[];fontSize=26;" parent="z4TTv1_D8EA7O0kFV5OE-15" vertex="1" connectable="0">
          <mxGeometry x="0.781" relative="1" as="geometry">
            <mxPoint x="22" y="-22" as="offset" />
          </mxGeometry>
        </mxCell>
        <mxCell id="z4TTv1_D8EA7O0kFV5OE-18" value="" style="endArrow=block;dashed=1;endFill=0;endSize=12;html=1;fontSize=26;exitX=0.5;exitY=0;exitDx=0;exitDy=0;" parent="WIyWlLk6GJQsqaUBKTNV-1" source="z4TTv1_D8EA7O0kFV5OE-7" target="z4TTv1_D8EA7O0kFV5OE-6" edge="1">
          <mxGeometry width="160" relative="1" as="geometry">
            <mxPoint x="420" y="1400" as="sourcePoint" />
            <mxPoint x="492" y="1501" as="targetPoint" />
          </mxGeometry>
        </mxCell>
        <mxCell id="z4TTv1_D8EA7O0kFV5OE-19" value="" style="endArrow=block;dashed=1;endFill=0;endSize=12;html=1;fontSize=26;exitX=0.5;exitY=0;exitDx=0;exitDy=0;" parent="WIyWlLk6GJQsqaUBKTNV-1" source="z4TTv1_D8EA7O0kFV5OE-9" target="z4TTv1_D8EA7O0kFV5OE-6" edge="1">
          <mxGeometry width="160" relative="1" as="geometry">
            <mxPoint x="332" y="1501" as="sourcePoint" />
            <mxPoint x="492" y="1501" as="targetPoint" />
          </mxGeometry>
        </mxCell>
        <mxCell id="z4TTv1_D8EA7O0kFV5OE-27" value="&lt;p style=&quot;margin: 4px 0px 0px ; text-align: center ; font-size: 20px&quot;&gt;&lt;font style=&quot;font-size: 20px&quot;&gt;&lt;i&gt;&amp;lt;&amp;lt;Interface&amp;gt;&amp;gt;&lt;/i&gt;&lt;br&gt;&lt;b&gt;Observable&lt;/b&gt;&lt;/font&gt;&lt;/p&gt;&lt;hr size=&quot;1&quot; style=&quot;font-size: 20px&quot;&gt;&lt;p style=&quot;margin: 0px 0px 0px 4px ; font-size: 20px&quot;&gt;&lt;/p&gt;&lt;p style=&quot;margin: 0px 0px 0px 4px ; font-size: 20px&quot;&gt;&lt;font style=&quot;font-size: 20px&quot;&gt;attach()&lt;/font&gt;&lt;/p&gt;&lt;p style=&quot;margin: 0px 0px 0px 4px ; font-size: 20px&quot;&gt;&lt;font style=&quot;font-size: 20px&quot;&gt;detach()&lt;/font&gt;&lt;/p&gt;&lt;p style=&quot;margin: 0px 0px 0px 4px ; font-size: 20px&quot;&gt;&lt;font style=&quot;font-size: 20px&quot;&gt;notify()&lt;/font&gt;&lt;/p&gt;" style="verticalAlign=top;align=left;overflow=fill;fontSize=12;fontFamily=Helvetica;html=1;" parent="WIyWlLk6GJQsqaUBKTNV-1" vertex="1">
          <mxGeometry x="195" y="1683" width="190" height="154" as="geometry" />
        </mxCell>
        <mxCell id="z4TTv1_D8EA7O0kFV5OE-28" value="&lt;p style=&quot;margin: 4px 0px 0px ; text-align: center ; font-size: 20px&quot;&gt;&lt;font style=&quot;font-size: 20px&quot;&gt;&lt;i&gt;&amp;lt;&amp;lt;Interface&amp;gt;&amp;gt;&lt;/i&gt;&lt;br&gt;&lt;b&gt;Observer&lt;/b&gt;&lt;/font&gt;&lt;/p&gt;&lt;hr size=&quot;1&quot; style=&quot;font-size: 20px&quot;&gt;&lt;p style=&quot;margin: 0px 0px 0px 4px ; font-size: 20px&quot;&gt;&lt;/p&gt;&lt;p style=&quot;margin: 0px 0px 0px 4px ; font-size: 20px&quot;&gt;update()&lt;/p&gt;" style="verticalAlign=top;align=left;overflow=fill;fontSize=12;fontFamily=Helvetica;html=1;" parent="WIyWlLk6GJQsqaUBKTNV-1" vertex="1">
          <mxGeometry x="492" y="1683" width="190" height="154" as="geometry" />
        </mxCell>
        <mxCell id="z4TTv1_D8EA7O0kFV5OE-29" value="ConcreteObservable" style="swimlane;fontStyle=1;align=center;verticalAlign=top;childLayout=stackLayout;horizontal=1;startSize=26;horizontalStack=0;resizeParent=1;resizeParentMax=0;resizeLast=0;collapsible=1;marginBottom=0;fontSize=18;" parent="WIyWlLk6GJQsqaUBKTNV-1" vertex="1">
          <mxGeometry x="175" y="1931" width="230" height="182" as="geometry" />
        </mxCell>
        <mxCell id="z4TTv1_D8EA7O0kFV5OE-30" value="attach()&#xa;detach()&#xa;notify()&#xa;getState()&#xa;setState()" style="text;strokeColor=none;fillColor=none;align=left;verticalAlign=top;spacingLeft=4;spacingRight=4;overflow=hidden;rotatable=0;points=[[0,0.5],[1,0.5]];portConstraint=eastwest;fontSize=20;" parent="z4TTv1_D8EA7O0kFV5OE-29" vertex="1">
          <mxGeometry y="26" width="230" height="156" as="geometry" />
        </mxCell>
        <mxCell id="z4TTv1_D8EA7O0kFV5OE-34" value="ConcreteObserver" style="swimlane;fontStyle=1;align=center;verticalAlign=top;childLayout=stackLayout;horizontal=1;startSize=26;horizontalStack=0;resizeParent=1;resizeParentMax=0;resizeLast=0;collapsible=1;marginBottom=0;fontSize=18;" parent="WIyWlLk6GJQsqaUBKTNV-1" vertex="1">
          <mxGeometry x="490" y="1952.5" width="194" height="139" as="geometry" />
        </mxCell>
        <mxCell id="z4TTv1_D8EA7O0kFV5OE-35" value="update()" style="text;strokeColor=none;fillColor=none;align=left;verticalAlign=top;spacingLeft=4;spacingRight=4;overflow=hidden;rotatable=0;points=[[0,0.5],[1,0.5]];portConstraint=eastwest;fontSize=20;" parent="z4TTv1_D8EA7O0kFV5OE-34" vertex="1">
          <mxGeometry y="26" width="194" height="113" as="geometry" />
        </mxCell>
        <mxCell id="z4TTv1_D8EA7O0kFV5OE-37" value="" style="endArrow=open;endFill=1;endSize=12;html=1;fontSize=20;exitX=0;exitY=0.5;exitDx=0;exitDy=0;entryX=1;entryY=0.5;entryDx=0;entryDy=0;" parent="WIyWlLk6GJQsqaUBKTNV-1" source="z4TTv1_D8EA7O0kFV5OE-35" target="z4TTv1_D8EA7O0kFV5OE-30" edge="1">
          <mxGeometry width="160" relative="1" as="geometry">
            <mxPoint x="332" y="1891" as="sourcePoint" />
            <mxPoint x="492" y="1891" as="targetPoint" />
          </mxGeometry>
        </mxCell>
        <mxCell id="z4TTv1_D8EA7O0kFV5OE-44" value="0..*" style="edgeLabel;html=1;align=center;verticalAlign=middle;resizable=0;points=[];fontSize=20;" parent="z4TTv1_D8EA7O0kFV5OE-37" vertex="1" connectable="0">
          <mxGeometry x="-0.7243" y="-2" relative="1" as="geometry">
            <mxPoint x="-6" y="-22" as="offset" />
          </mxGeometry>
        </mxCell>
        <mxCell id="z4TTv1_D8EA7O0kFV5OE-45" value="1..1" style="edgeLabel;html=1;align=center;verticalAlign=middle;resizable=0;points=[];fontSize=20;" parent="z4TTv1_D8EA7O0kFV5OE-37" vertex="1" connectable="0">
          <mxGeometry x="0.6738" relative="1" as="geometry">
            <mxPoint x="2" y="-26" as="offset" />
          </mxGeometry>
        </mxCell>
        <mxCell id="z4TTv1_D8EA7O0kFV5OE-39" value="" style="endArrow=block;dashed=1;endFill=0;endSize=12;html=1;fontSize=20;exitX=0.5;exitY=0;exitDx=0;exitDy=0;entryX=0.5;entryY=1;entryDx=0;entryDy=0;" parent="WIyWlLk6GJQsqaUBKTNV-1" source="z4TTv1_D8EA7O0kFV5OE-29" target="z4TTv1_D8EA7O0kFV5OE-27" edge="1">
          <mxGeometry width="160" relative="1" as="geometry">
            <mxPoint x="332" y="1891" as="sourcePoint" />
            <mxPoint x="492" y="1891" as="targetPoint" />
          </mxGeometry>
        </mxCell>
        <mxCell id="z4TTv1_D8EA7O0kFV5OE-40" value="" style="endArrow=block;dashed=1;endFill=0;endSize=12;html=1;fontSize=20;exitX=0.5;exitY=0;exitDx=0;exitDy=0;entryX=0.5;entryY=1;entryDx=0;entryDy=0;" parent="WIyWlLk6GJQsqaUBKTNV-1" source="z4TTv1_D8EA7O0kFV5OE-34" target="z4TTv1_D8EA7O0kFV5OE-28" edge="1">
          <mxGeometry width="160" relative="1" as="geometry">
            <mxPoint x="332" y="1891" as="sourcePoint" />
            <mxPoint x="492" y="1891" as="targetPoint" />
          </mxGeometry>
        </mxCell>
        <mxCell id="z4TTv1_D8EA7O0kFV5OE-41" value="" style="endArrow=open;endFill=1;endSize=12;html=1;fontSize=20;exitX=1;exitY=0.5;exitDx=0;exitDy=0;entryX=0;entryY=0.5;entryDx=0;entryDy=0;" parent="WIyWlLk6GJQsqaUBKTNV-1" source="z4TTv1_D8EA7O0kFV5OE-27" target="z4TTv1_D8EA7O0kFV5OE-28" edge="1">
          <mxGeometry width="160" relative="1" as="geometry">
            <mxPoint x="332" y="1891" as="sourcePoint" />
            <mxPoint x="492" y="1891" as="targetPoint" />
          </mxGeometry>
        </mxCell>
        <mxCell id="z4TTv1_D8EA7O0kFV5OE-42" value="0..*" style="edgeLabel;html=1;align=center;verticalAlign=middle;resizable=0;points=[];fontSize=20;" parent="z4TTv1_D8EA7O0kFV5OE-41" vertex="1" connectable="0">
          <mxGeometry x="0.529" y="1" relative="1" as="geometry">
            <mxPoint x="4" y="-21" as="offset" />
          </mxGeometry>
        </mxCell>
        <mxCell id="z4TTv1_D8EA7O0kFV5OE-43" value="0..1" style="edgeLabel;html=1;align=center;verticalAlign=middle;resizable=0;points=[];fontSize=20;" parent="z4TTv1_D8EA7O0kFV5OE-41" vertex="1" connectable="0">
          <mxGeometry x="-0.7421" y="1" relative="1" as="geometry">
            <mxPoint x="2" y="-18" as="offset" />
          </mxGeometry>
        </mxCell>
        <mxCell id="U-YHXHA-iDNk5hEq2SCg-0" value="&lt;font style=&quot;font-size: 28px&quot;&gt;X&lt;/font&gt;" style="ellipse;whiteSpace=wrap;html=1;aspect=fixed;" parent="WIyWlLk6GJQsqaUBKTNV-1" vertex="1">
          <mxGeometry x="175" y="2435" width="80" height="80" as="geometry" />
        </mxCell>
        <mxCell id="U-YHXHA-iDNk5hEq2SCg-1" value="&lt;font style=&quot;font-size: 28px&quot;&gt;Y&lt;/font&gt;" style="ellipse;whiteSpace=wrap;html=1;aspect=fixed;" parent="WIyWlLk6GJQsqaUBKTNV-1" vertex="1">
          <mxGeometry x="81" y="2521" width="80" height="80" as="geometry" />
        </mxCell>
        <mxCell id="U-YHXHA-iDNk5hEq2SCg-2" value="" style="triangle;whiteSpace=wrap;html=1;rotation=-90;fillColor=#f8cecc;strokeColor=#b85450;" parent="WIyWlLk6GJQsqaUBKTNV-1" vertex="1">
          <mxGeometry x="21" y="2622" width="60" height="80" as="geometry" />
        </mxCell>
        <mxCell id="U-YHXHA-iDNk5hEq2SCg-3" value="" style="triangle;whiteSpace=wrap;html=1;rotation=-90;fillColor=#dae8fc;strokeColor=#6c8ebf;" parent="WIyWlLk6GJQsqaUBKTNV-1" vertex="1">
          <mxGeometry x="158" y="2622" width="60" height="80" as="geometry" />
        </mxCell>
        <mxCell id="U-YHXHA-iDNk5hEq2SCg-4" value="" style="triangle;whiteSpace=wrap;html=1;rotation=-90;fillColor=#d5e8d4;strokeColor=#82b366;" parent="WIyWlLk6GJQsqaUBKTNV-1" vertex="1">
          <mxGeometry x="263" y="2532" width="60" height="80" as="geometry" />
        </mxCell>
        <mxCell id="U-YHXHA-iDNk5hEq2SCg-5" value="" style="endArrow=none;html=1;entryX=1;entryY=1;entryDx=0;entryDy=0;exitX=1;exitY=0.5;exitDx=0;exitDy=0;" parent="WIyWlLk6GJQsqaUBKTNV-1" source="U-YHXHA-iDNk5hEq2SCg-4" target="U-YHXHA-iDNk5hEq2SCg-0" edge="1">
          <mxGeometry width="50" height="50" relative="1" as="geometry">
            <mxPoint x="387" y="2623" as="sourcePoint" />
            <mxPoint x="437" y="2573" as="targetPoint" />
          </mxGeometry>
        </mxCell>
        <mxCell id="U-YHXHA-iDNk5hEq2SCg-7" value="" style="endArrow=none;html=1;exitX=1;exitY=0;exitDx=0;exitDy=0;entryX=0;entryY=1;entryDx=0;entryDy=0;" parent="WIyWlLk6GJQsqaUBKTNV-1" source="U-YHXHA-iDNk5hEq2SCg-1" target="U-YHXHA-iDNk5hEq2SCg-0" edge="1">
          <mxGeometry width="50" height="50" relative="1" as="geometry">
            <mxPoint x="387" y="2623" as="sourcePoint" />
            <mxPoint x="437" y="2573" as="targetPoint" />
          </mxGeometry>
        </mxCell>
        <mxCell id="U-YHXHA-iDNk5hEq2SCg-8" value="" style="endArrow=none;html=1;exitX=0;exitY=1;exitDx=0;exitDy=0;entryX=1;entryY=0.5;entryDx=0;entryDy=0;" parent="WIyWlLk6GJQsqaUBKTNV-1" source="U-YHXHA-iDNk5hEq2SCg-1" target="U-YHXHA-iDNk5hEq2SCg-2" edge="1">
          <mxGeometry width="50" height="50" relative="1" as="geometry">
            <mxPoint x="387" y="2623" as="sourcePoint" />
            <mxPoint x="437" y="2573" as="targetPoint" />
          </mxGeometry>
        </mxCell>
        <mxCell id="U-YHXHA-iDNk5hEq2SCg-9" value="" style="endArrow=none;html=1;exitX=1;exitY=1;exitDx=0;exitDy=0;entryX=1;entryY=0.5;entryDx=0;entryDy=0;" parent="WIyWlLk6GJQsqaUBKTNV-1" source="U-YHXHA-iDNk5hEq2SCg-1" target="U-YHXHA-iDNk5hEq2SCg-3" edge="1">
          <mxGeometry width="50" height="50" relative="1" as="geometry">
            <mxPoint x="102.7157287525381" y="2599.284271247462" as="sourcePoint" />
            <mxPoint x="61" y="2642" as="targetPoint" />
          </mxGeometry>
        </mxCell>
        <mxCell id="U-YHXHA-iDNk5hEq2SCg-10" value="&lt;font style=&quot;font-size: 28px&quot;&gt;X&lt;/font&gt;" style="ellipse;whiteSpace=wrap;html=1;aspect=fixed;" parent="WIyWlLk6GJQsqaUBKTNV-1" vertex="1">
          <mxGeometry x="636" y="2528" width="80" height="80" as="geometry" />
        </mxCell>
        <mxCell id="U-YHXHA-iDNk5hEq2SCg-11" value="&lt;font style=&quot;font-size: 28px&quot;&gt;Y&lt;/font&gt;" style="ellipse;whiteSpace=wrap;html=1;aspect=fixed;" parent="WIyWlLk6GJQsqaUBKTNV-1" vertex="1">
          <mxGeometry x="539" y="2433" width="80" height="80" as="geometry" />
        </mxCell>
        <mxCell id="U-YHXHA-iDNk5hEq2SCg-12" value="" style="triangle;whiteSpace=wrap;html=1;rotation=-90;fillColor=#d5e8d4;strokeColor=#82b366;" parent="WIyWlLk6GJQsqaUBKTNV-1" vertex="1">
          <mxGeometry x="729" y="2631" width="60" height="80" as="geometry" />
        </mxCell>
        <mxCell id="U-YHXHA-iDNk5hEq2SCg-13" value="" style="triangle;whiteSpace=wrap;html=1;rotation=-90;fillColor=#dae8fc;strokeColor=#6c8ebf;" parent="WIyWlLk6GJQsqaUBKTNV-1" vertex="1">
          <mxGeometry x="579" y="2631" width="60" height="80" as="geometry" />
        </mxCell>
        <mxCell id="U-YHXHA-iDNk5hEq2SCg-14" value="" style="triangle;whiteSpace=wrap;html=1;rotation=-90;fillColor=#f8cecc;strokeColor=#b85450;" parent="WIyWlLk6GJQsqaUBKTNV-1" vertex="1">
          <mxGeometry x="464" y="2533" width="60" height="80" as="geometry" />
        </mxCell>
        <mxCell id="U-YHXHA-iDNk5hEq2SCg-15" value="" style="endArrow=none;html=1;exitX=1;exitY=0;exitDx=0;exitDy=0;entryX=0;entryY=1;entryDx=0;entryDy=0;" parent="WIyWlLk6GJQsqaUBKTNV-1" target="U-YHXHA-iDNk5hEq2SCg-11" edge="1">
          <mxGeometry width="50" height="50" relative="1" as="geometry">
            <mxPoint x="494.00427124746193" y="2542.4357287525377" as="sourcePoint" />
            <mxPoint x="531.4357287525381" y="2513.004271247462" as="targetPoint" />
          </mxGeometry>
        </mxCell>
        <mxCell id="U-YHXHA-iDNk5hEq2SCg-16" value="" style="endArrow=none;html=1;entryX=1;entryY=1;entryDx=0;entryDy=0;exitX=0;exitY=0;exitDx=0;exitDy=0;" parent="WIyWlLk6GJQsqaUBKTNV-1" source="U-YHXHA-iDNk5hEq2SCg-10" target="U-YHXHA-iDNk5hEq2SCg-11" edge="1">
          <mxGeometry width="50" height="50" relative="1" as="geometry">
            <mxPoint x="476" y="2624" as="sourcePoint" />
            <mxPoint x="526" y="2574" as="targetPoint" />
          </mxGeometry>
        </mxCell>
        <mxCell id="U-YHXHA-iDNk5hEq2SCg-17" value="" style="endArrow=none;html=1;exitX=1;exitY=0.5;exitDx=0;exitDy=0;entryX=0;entryY=1;entryDx=0;entryDy=0;" parent="WIyWlLk6GJQsqaUBKTNV-1" source="U-YHXHA-iDNk5hEq2SCg-13" target="U-YHXHA-iDNk5hEq2SCg-10" edge="1">
          <mxGeometry width="50" height="50" relative="1" as="geometry">
            <mxPoint x="585.6442712474619" y="2639.1557287525375" as="sourcePoint" />
            <mxPoint x="642.3557287525379" y="2598.004271247462" as="targetPoint" />
          </mxGeometry>
        </mxCell>
        <mxCell id="U-YHXHA-iDNk5hEq2SCg-18" value="" style="endArrow=none;html=1;exitX=1;exitY=0.5;exitDx=0;exitDy=0;entryX=1;entryY=1;entryDx=0;entryDy=0;" parent="WIyWlLk6GJQsqaUBKTNV-1" source="U-YHXHA-iDNk5hEq2SCg-12" target="U-YHXHA-iDNk5hEq2SCg-10" edge="1">
          <mxGeometry width="50" height="50" relative="1" as="geometry">
            <mxPoint x="687" y="2652.72" as="sourcePoint" />
            <mxPoint x="725.7157287525379" y="2608.004271247462" as="targetPoint" />
          </mxGeometry>
        </mxCell>
        <mxCell id="U-YHXHA-iDNk5hEq2SCg-19" value="&lt;font style=&quot;font-size: 29px&quot;&gt;&amp;lt;Y&lt;br&gt;&amp;lt;X&lt;/font&gt;" style="text;html=1;strokeColor=none;fillColor=none;align=center;verticalAlign=middle;whiteSpace=wrap;rounded=0;" parent="WIyWlLk6GJQsqaUBKTNV-1" vertex="1">
          <mxGeometry x="25" y="2666" width="40" height="113" as="geometry" />
        </mxCell>
        <mxCell id="U-YHXHA-iDNk5hEq2SCg-20" value="&lt;font style=&quot;font-size: 29px&quot;&gt;&amp;gt;Y&lt;br&gt;&amp;lt;X&lt;/font&gt;" style="text;html=1;strokeColor=none;fillColor=none;align=center;verticalAlign=middle;whiteSpace=wrap;rounded=0;" parent="WIyWlLk6GJQsqaUBKTNV-1" vertex="1">
          <mxGeometry x="168" y="2666" width="40" height="113" as="geometry" />
        </mxCell>
        <mxCell id="U-YHXHA-iDNk5hEq2SCg-21" value="&lt;font style=&quot;font-size: 29px&quot;&gt;&amp;gt;Y&lt;br&gt;&amp;gt;X&lt;/font&gt;" style="text;html=1;strokeColor=none;fillColor=none;align=center;verticalAlign=middle;whiteSpace=wrap;rounded=0;" parent="WIyWlLk6GJQsqaUBKTNV-1" vertex="1">
          <mxGeometry x="275" y="2576" width="40" height="113" as="geometry" />
        </mxCell>
        <mxCell id="QOZxesNpLrTywkHzgtew-0" value="" style="shape=flexArrow;endArrow=classic;html=1;" edge="1" parent="WIyWlLk6GJQsqaUBKTNV-1">
          <mxGeometry width="50" height="50" relative="1" as="geometry">
            <mxPoint x="341" y="2468" as="sourcePoint" />
            <mxPoint x="454" y="2468" as="targetPoint" />
          </mxGeometry>
        </mxCell>
        <mxCell id="QOZxesNpLrTywkHzgtew-1" value="" style="shape=flexArrow;endArrow=classic;html=1;" edge="1" parent="WIyWlLk6GJQsqaUBKTNV-1">
          <mxGeometry width="50" height="50" relative="1" as="geometry">
            <mxPoint x="452" y="2506" as="sourcePoint" />
            <mxPoint x="342" y="2506" as="targetPoint" />
          </mxGeometry>
        </mxCell>
        <mxCell id="QOZxesNpLrTywkHzgtew-2" value="Right Rotation" style="text;html=1;strokeColor=none;fillColor=none;align=center;verticalAlign=middle;whiteSpace=wrap;rounded=0;fontSize=23;" vertex="1" parent="WIyWlLk6GJQsqaUBKTNV-1">
          <mxGeometry x="308" y="2431" width="194" height="20" as="geometry" />
        </mxCell>
        <mxCell id="QOZxesNpLrTywkHzgtew-3" value="Left Rotation" style="text;html=1;strokeColor=none;fillColor=none;align=center;verticalAlign=middle;whiteSpace=wrap;rounded=0;fontSize=23;" vertex="1" parent="WIyWlLk6GJQsqaUBKTNV-1">
          <mxGeometry x="308" y="2526" width="194" height="20" as="geometry" />
        </mxCell>
      </root>
    </mxGraphModel>
  </diagram>
</mxfile>
